<?xml version="1.0" encoding="UTF-8"?>
<svg id="Layer_1" xmlns="http://www.w3.org/2000/svg" version="1.1" viewBox="0 0 350 350">
  <!-- Generator: Adobe Illustrator 29.5.0, SVG Export Plug-In . SVG Version: 2.1.0 Build 137)  -->
  <defs>
    <style>
      .st0 {
        fill: #eae6dd;
      }
    </style>
  </defs>
  <g id="YkxrSZ">
    <g>
      <path class="st0" d="M298.88,84.02v1.45l-1.04,2.59c-38.41,66.21-73.59,134.37-112.11,200.5-2.18,3.73-3.88,8.16-7.83,10.32h-3.39c-2.12-1.04-3.58-2.65-4.74-4.69L51.12,85.96v-2.42c1.26-3.04,3.36-5.31,6.94-5.29l77.19,14.07c.06,1.82.16,3.7.08,5.52-.89,19.95-3.37,40.05-3.88,59.99-.18,7.14,2.55,11.58,10.26,10.75,6.59-.71,13.99-3.85,20.7-4.7-1.56,11.75-5.63,23.21-6.25,35.04,3.09,11.03,14.31,5.08,21.73,2.7l-10.59,53.04c1.39,10.9,13.47,11.08,17.45,1.49l70.36-141.12c1.02-5.01-2.45-9.32-7.35-10.17l-23.9,4.33,5.77-19.14,62.71-11.73c3.68.29,5.52,2.39,6.52,5.71h.02Z"/>
      <path class="st0" d="M249.92,114.15l-69.83,139.74c-1.37,3.55-5.49,6.18-7.43,1.57,3.18-19.1,8.08-38.17,11.32-57.23-.36-.55-.54-1.63-1.08-1.97-2.87-1.82-13.52,3.37-17.38,3.87-2.78.35-4.68-.33-4.45-3.44.76-10.5,6.06-23.41,7.1-34.07.32-3.28-.45-4.84-4.01-4.51-7.45.71-16.31,4.59-23.95,5.5-1.45.1-3.16-.93-3.44-2.41.61-19.06,2.2-38.08,3.37-57.1.62-10.11.58-20.39,1.47-30.47.19-2.23.35-5.26,3.05-5.66l85.01-16.85h2.42c2.19,1.36,2.2,2.52,1.82,4.97-4.28,17.36-11.06,34.81-15.12,52.14-.71,3.01-1.86,6.24,2.4,6.78l25.66-4.87c2.32.1,3.51,1.82,3.06,4.02h0Z"/>
    </g>
  </g>
</svg>