<?xml version="1.0" encoding="UTF-8"?>
<svg id="Layer_1" data-name="Layer 1" xmlns="http://www.w3.org/2000/svg" viewBox="0 0 500 500">
  <defs>
    <style>
      .cls-1 {
        fill: none;
        stroke: #dddad4;
        stroke-miterlimit: 10;
        stroke-width: 10.66px;
      }

      .cls-2 {
        fill: #eae6dd;
      }
    </style>
  </defs>
  <path class="cls-2" d="M410.24,153.25h-45.54v-22.1l-43.9-40.62h-142.69l-42.81,42.81v19.91h-45.54c-8.41,0-15.24,6.82-15.24,15.24v106.53c0,6.97,4.67,12.84,11.05,14.65v103.7c0,8.89,7.21,16.1,16.1,16.1h296.66c8.9,0,16.1-7.21,16.1-16.1v-103.7c6.38-1.81,11.05-7.68,11.05-14.65v-106.53c0-8.42-6.82-15.24-15.24-15.24ZM289.28,314.98c0,5.33-5.37,9.65-12,9.65h-55.84c-6.63,0-12-4.32-12-9.65v-44.82c0-5.32,5.37-9.65,12-9.65h55.84c6.63,0,12,4.33,12,9.65v44.82ZM321.89,153.25h-143.78v-22.1h143.78v22.1Z"/>
  <line class="cls-1" x1="209.35" y1="299.82" x2="94.19" y2="299.82"/>
  <line class="cls-1" x1="406.3" y1="299.82" x2="289.7" y2="299.82"/>
</svg>